PathFileType	4	(X/Y/Z)	RBDS014static.trc
DataRate	CameraRate	NumFrames	NumMarkers	Units	OrigDataRate	OrigDataStartFrame	OrigNumFrames
150.000000	150.000000	4	48	mm	150.000000	112	150
Frame#	Time	L.Ankle			L.Ankle.Medial			L.ASIS			L.GTR			L.Heel.Bottom			L.Heel.Lateral			L.Heel.Top			L.HF			L.Iliac.Crest			L.Knee			L.Knee.Medial			L.MT1			L.MT2			L.MT5			L.PSIS			L.Shank.Bottom.Lateral			L.Shank.Bottom.Medial			L.Shank.Top.Lateral			L.Shank.Top.Medial			L.Thigh.Bottom.Lateral			L.Thigh.Bottom.Medial			L.Thigh.Top.Lateral			L.Thigh.Top.Medial			L.TT			R.Ankle			R.Ankle.Medial			R.ASIS			R.GTR			R.Heel.Bottom			R.Heel.Lateral			R.Heel.Top			R.HF			R.Iliac.Crest			R.Knee			R.Knee.Medial			R.MT1			R.MT2			R.MT5			R.PSIS			R.Shank.Bottom.Lateral			R.Shank.Bottom.Medial			R.Shank.Top.Lateral			R.Shank.Top.Medial			R.Thigh.Bottom.Lateral			R.Thigh.Bottom.Medial			R.Thigh.Top.Lateral			R.Thigh.Top.Medial			R.TT			
		X1	Y1	Z1	X2	Y2	Z2	X3	Y3	Z3	X4	Y4	Z4	X5	Y5	Z5	X6	Y6	Z6	X7	Y7	Z7	X8	Y8	Z8	X9	Y9	Z9	X10	Y10	Z10	X11	Y11	Z11	X12	Y12	Z12	X13	Y13	Z13	X14	Y14	Z14	X15	Y15	Z15	X16	Y16	Z16	X17	Y17	Z17	X18	Y18	Z18	X19	Y19	Z19	X20	Y20	Z20	X21	Y21	Z21	X22	Y22	Z22	X23	Y23	Z23	X24	Y24	Z24	X25	Y25	Z25	X26	Y26	Z26	X27	Y27	Z27	X28	Y28	Z28	X29	Y29	Z29	X30	Y30	Z30	X31	Y31	Z31	X32	Y32	Z32	X33	Y33	Z33	X34	Y34	Z34	X35	Y35	Z35	X36	Y36	Z36	X37	Y37	Z37	X38	Y38	Z38	X39	Y39	Z39	X40	Y40	Z40	X41	Y41	Z41	X42	Y42	Z42	X43	Y43	Z43	X44	Y44	Z44	X45	Y45	Z45	X46	Y46	Z46	X47	Y47	Z47	X48	Y48	Z48	

113	0.7466666666666667	714.8839111328125	108.0966415405273	1042.266967773438	740.3887329101563	118.7071838378906	1127.979370117188	856.8158569335938	1133.86474609375	1110.785400390625	776.9274291992188	1022.681762695313	1053.605346679688	643.40673828125	41.47900390625	1085.34716796875	665.9052124023438	65.23499298095703	1045.10009765625	652.968017578125	92.12202453613281	1087.260986328125	777.28955078125	523.6273193359375	1039.5107421875	779.3829345703125	1192.032592773438	1070.554077148438	786.320068359375	596.5863647460938	1050.377197265625	780.7471313476563	576.4423217773438	1173.659790039063	876.7710571289063	57.80289459228516	1132.547729492188	886.584228515625	69.33399963378906	1088.665405273438	840.1139526367188	51.19515228271484	1013.348388671875	675.7449340820313	1149.699340820313	1184.847290039063	725.6071166992188	207.7813262939453	1031.55126953125	682.5806884765625	210.4768524169922	1066.357055664063	721.8531494140625	287.7383422851563	1021.739807128906	680.4873657226563	291.0627136230469	1056.158569335938	781.3994750976563	753.5819091796875	1031.018310546875	720.0745849609375	747.8554077148438	1069.620971679688	765.9923095703125	863.244140625	1028.92919921875	710.9417724609375	858.0195922851563	1069.16943359375	831.156494140625	494.3251342773438	1097.355834960938	720.9745483398438	108.2041015625	1417.67578125	748.2030029296875	126.1464462280273	1332.475463867188	859.4544677734375	1142.628540039063	1357.06982421875	795.4923095703125	1032.323364257813	1412.29736328125	646.158935546875	43.01622772216797	1374.26025390625	669.5675048828125	66.35832977294922	1412.330444335938	654.9386596679688	94.99775695800781	1371.790283203125	786.529296875	535.3424682617188	1420.808227539063	795.8302001953125	1208.579345703125	1382.619873046875	789.8142700195313	606.1803588867188	1411.987548828125	786.6031494140625	582.2706298828125	1287.435180664063	879.3450927734375	58.68787384033203	1326.9638671875	890.0988159179688	72.54882049560547	1371.487060546875	846.9630737304688	51.71586227416992	1448.481567382813	683.8558959960938	1158.448120117188	1278.9248046875	713.8901977539063	208.3221130371094	1422.822143554688	684.0289916992188	215.7120666503906	1381.860717773438	714.8070068359375	292.4442443847656	1435.064208984375	682.5885009765625	295.8342895507813	1392.908447265625	808.7500610351563	736.2061157226563	1429.009399414063	740.3067626953125	732.8538208007813	1403.471313476563	798.0196533203125	844.947021484375	1436.521728515625	733.3363647460938	842.5447998046875	1410.310913085938	837.1556396484375	500.0461730957031	1358.44921875	
114	0.7533333333333334	714.8870849609375	108.0950775146484	1042.276489257813	740.3796997070313	118.7132415771484	1127.982299804688	856.7645874023438	1133.87451171875	1110.775756835938	776.8876342773438	1022.679626464844	1053.645751953125	643.4074096679688	41.47725296020508	1085.34130859375	665.907470703125	65.23358154296875	1045.104125976563	652.9644165039063	92.11957550048828	1087.255126953125	777.2894287109375	523.6239624023438	1039.511596679688	779.3218383789063	1192.03955078125	1070.568481445313	786.327392578125	596.5814819335938	1050.390625	780.7513427734375	576.4395751953125	1173.6787109375	876.7721557617188	57.80744934082031	1132.5556640625	886.583740234375	69.32603454589844	1088.665283203125	840.1129150390625	51.1950798034668	1013.351501464844	675.7025146484375	1149.697387695313	1184.882690429688	725.6051635742188	207.7804107666016	1031.541259765625	682.58544921875	210.4801025390625	1066.357788085938	721.8646240234375	287.7376403808594	1021.754943847656	680.4907836914063	291.062255859375	1056.161254882813	781.3772583007813	753.5863647460938	1031.024780273438	720.0623168945313	747.840087890625	1069.638427734375	765.9772338867188	863.2830200195313	1029.05322265625	710.9052124023438	858.0020751953125	1069.172485351563	831.16259765625	494.3177490234375	1097.366577148438	720.9605102539063	108.2020568847656	1417.681640625	748.188232421875	126.1366424560547	1332.483764648438	859.4254150390625	1142.63427734375	1357.072875976563	795.4710693359375	1032.313598632813	1412.31396484375	646.1556396484375	43.01460266113281	1374.265625	669.5682983398438	66.36466979980469	1412.325927734375	654.935546875	94.99753570556641	1371.795288085938	786.5133056640625	535.3301391601563	1420.814697265625	795.81396484375	1208.581420898438	1382.633056640625	789.8037719726563	606.178955078125	1411.994873046875	786.5620727539063	582.2727661132813	1287.447998046875	879.3434448242188	58.68656921386719	1326.97900390625	890.1024169921875	72.55171203613281	1371.486938476563	846.9598388671875	51.71465682983398	1448.491577148438	683.8201904296875	1158.445190429688	1278.957153320313	713.8873901367188	208.3187103271484	1422.830932617188	684.017333984375	215.7069702148438	1381.855712890625	714.792724609375	292.446044921875	1435.060668945313	682.5752563476563	295.8241577148438	1392.914306640625	808.7167358398438	736.2050170898438	1429.030883789063	740.2777709960938	732.8492431640625	1403.491943359375	797.984619140625	844.951416015625	1436.528930664063	733.298583984375	842.540283203125	1410.308959960938	837.1483764648438	500.0481262207031	1358.456298828125	
115	0.76	714.8898315429688	108.0995941162109	1042.281372070313	740.3892822265625	118.7160491943359	1127.987426757813	856.7208251953125	1133.870361328125	1110.78173828125	776.8310546875	1022.691467285156	1053.657592773438	643.403564453125	41.47982025146484	1085.346069335938	665.9070434570313	65.23345947265625	1045.10693359375	652.9661254882813	92.12809753417969	1087.250366210938	777.3024291992188	523.6214599609375	1039.523559570313	779.2518310546875	1192.039306640625	1070.578125	786.3424682617188	596.5926513671875	1050.40185546875	780.74609375	576.4348754882813	1173.690795898438	876.7679443359375	57.8082389831543	1132.553955078125	886.5870361328125	69.32950592041016	1088.660034179688	840.1122436523438	51.19922637939453	1013.348510742188	675.6615600585938	1149.698364257813	1184.90234375	725.6132202148438	207.7829437255859	1031.5478515625	682.5888061523438	210.4793243408203	1066.354736328125	721.87451171875	287.7370300292969	1021.739685058594	680.49853515625	291.0610046386719	1056.162231445313	781.3446044921875	753.5765991210938	1031.031860351563	720.0526123046875	747.826904296875	1069.6513671875	765.93212890625	863.2245483398438	1028.953979492188	710.8851318359375	857.9880981445313	1069.183471679688	831.167236328125	494.3182067871094	1097.37890625	720.9567260742188	108.2043914794922	1417.693603515625	748.1856079101563	126.129997253418	1332.4814453125	859.3988037109375	1142.636352539063	1357.070190429688	795.4388427734375	1032.310302734375	1412.324340820313	646.1553344726563	43.01851272583008	1374.267822265625	669.5570068359375	66.35646820068359	1412.329223632813	654.9298706054688	94.99062347412109	1371.79931640625	786.4999389648438	535.3284912109375	1420.824340820313	795.787109375	1208.5986328125	1382.638671875	789.7901611328125	606.1680297851563	1411.997802734375	786.5391235351563	582.2745971679688	1287.452270507813	879.33251953125	58.68863677978516	1326.98388671875	890.1019287109375	72.54683685302734	1371.489135742188	846.9576416015625	51.72126388549805	1448.487182617188	683.7757568359375	1158.445434570313	1278.96923828125	713.8865966796875	208.3048095703125	1422.825561523438	684.0072021484375	215.7028503417969	1381.859619140625	714.7822265625	292.4257507324219	1435.059692382813	682.5601196289063	295.8098449707031	1392.919067382813	808.6896362304688	736.20458984375	1429.04931640625	740.2510986328125	732.8565673828125	1403.513305664063	797.961669921875	844.9521484375	1436.532958984375	733.2627563476563	842.5472412109375	1410.338012695313	837.1288452148438	500.0475463867188	1358.470825195313	
116	0.7666666666666667	714.894775390625	108.099739074707	1042.287475585938	740.3911743164063	118.7179336547852	1127.988891601563	856.6649780273438	1133.8720703125	1110.779663085938	776.7864379882813	1022.680725097656	1053.68505859375	643.4100952148438	41.47125244140625	1085.347778320313	665.9113159179688	65.23261260986328	1045.109130859375	652.9672241210938	92.12861633300781	1087.257690429688	777.3197021484375	523.6221313476563	1039.535034179688	779.2066040039063	1192.04638671875	1070.595825195313	786.3500366210938	596.5826416015625	1050.429809570313	780.7639770507813	576.4391479492188	1173.70556640625	876.7645263671875	57.81025695800781	1132.566162109375	886.5845336914063	69.33331298828125	1088.675659179688	840.119873046875	51.20083618164063	1013.357971191406	675.6107788085938	1149.699951171875	1184.927490234375	725.6303100585938	207.7757415771484	1031.5546875	682.5936889648438	210.4773406982422	1066.360229492188	721.885009765625	287.7355346679688	1021.753601074219	680.5003051757813	291.0570983886719	1056.161499023438	781.324951171875	753.5772705078125	1031.046630859375	720.0385131835938	747.8046264648438	1069.668823242188	765.90478515625	863.2658081054688	1029.079467773438	710.8507690429688	857.97607421875	1069.21533203125	831.1864624023438	494.3250732421875	1097.416137695313	720.9459838867188	108.2030639648438	1417.691650390625	748.1924438476563	126.1380844116211	1332.486206054688	859.367431640625	1142.63916015625	1357.08544921875	795.4166259765625	1032.316162109375	1412.347045898438	646.1402587890625	43.01141738891602	1374.264770507813	669.5595703125	66.35055541992188	1412.335327148438	654.920166015625	94.98911285400391	1371.794799804688	786.4900512695313	535.3234252929688	1420.840454101563	795.7549438476563	1208.613891601563	1382.629638671875	789.7666625976563	606.168212890625	1412.00439453125	786.5182495117188	582.2730712890625	1287.462280273438	879.3290405273438	58.68759536743164	1326.982055664063	890.09326171875	72.55376434326172	1371.486938476563	846.9598999023438	51.71651458740234	1448.48876953125	683.743896484375	1158.440673828125	1279.002319335938	713.8767700195313	208.2964019775391	1422.825805664063	683.998046875	215.6902618408203	1381.869384765625	714.77392578125	292.4250183105469	1435.0556640625	682.5355224609375	295.8056335449219	1392.920654296875	808.6705932617188	736.2017822265625	1429.068481445313	740.2279663085938	732.8485107421875	1403.53515625	797.9354248046875	844.9462890625	1436.525390625	733.2346801757813	842.5335083007813	1410.350952148438	837.1160278320313	500.0498657226563	1358.486694335938	
